arm260_states
version=1
nRows=41
nColumns=17
inDegrees=yes

# SIMM Motion File Header:
name arm260_states
datacolumns 17
datarows 41
otherdata 1
range 0.31002901 0.34010079
endheader
time	/jointset/r_shoulder/r_shoulder_elev/value	/jointset/r_shoulder/r_shoulder_elev/speed	/jointset/r_elbow/r_elbow_flex/value	/jointset/r_elbow/r_elbow_flex/speed	/forceset/TRIlong/activation	/forceset/TRIlong/fiber_length	/forceset/TRIlat/activation	/forceset/TRIlat/fiber_length	/forceset/TRImed/activation	/forceset/TRImed/fiber_length	/forceset/BIClong/activation	/forceset/BIClong/fiber_length	/forceset/BICshort/activation	/forceset/BICshort/fiber_length	/forceset/BRA/activation	/forceset/BRA/fiber_length
      0.31002901	      0.12048135	      0.90132440	     80.72780816	    259.12246277	      0.02000000	      0.16661585	      0.14148996	      0.09995191	      0.13945026	      0.09501152	      0.70509076	      0.10382444	      0.17525129	      0.10476593	      0.02305847	      0.07233621
      0.31015717	      0.12059676	      0.89967730	     80.76101703	    259.12359823	      0.02000000	      0.16662699	      0.14163948	      0.09996294	      0.13958866	      0.09502254	      0.70557890	      0.10379670	      0.17492889	      0.10473739	      0.02305666	      0.07232392
      0.31079796	      0.12117055	      0.89119014	     80.92706381	    259.12997955	      0.02000000	      0.16668225	      0.14234737	      0.10001744	      0.14024379	      0.09507705	      0.70795703	      0.10365764	      0.17333171	      0.10459599	      0.02304765	      0.07226244
      0.31294574	      0.12305726	      0.86858683	     81.48362734	    259.13003875	      0.02000000	      0.16686414	      0.14430050	      0.10019875	      0.14205016	      0.09525891	      0.71521983	      0.10318799	      0.16815249	      0.10413466	      0.02301801	      0.07205564
      0.31380485	      0.12380011	      0.86058332	     81.70624640	    259.12200362	      0.02000000	      0.16694603	      0.14493007	      0.10027143	      0.14263194	      0.09533176	      0.71784561	      0.10299902	      0.16615311	      0.10395432	      0.02300639	      0.07197262
      0.31466397	      0.12453685	      0.85485462	     81.92885831	    259.11562978	      0.02000000	      0.16701277	      0.14548790	      0.10034453	      0.14314718	      0.09540503	      0.72032612	      0.10280963	      0.16419343	      0.10377579	      0.02299490	      0.07188946
      0.31552308	      0.12526843	      0.84799669	     82.15146366	    259.10575965	      0.02000000	      0.16709116	      0.14598229	      0.10041797	      0.14360359	      0.09547860	      0.72267002	      0.10261992	      0.16227242	      0.10359872	      0.02298354	      0.07180615
      0.31652641	      0.12611538	      0.84088837	     82.41142980	    259.10034639	      0.02000000	      0.16717168	      0.14648911	      0.10050409	      0.14407121	      0.09556483	      0.72524523	      0.10239808	      0.16007653	      0.10339345	      0.02297045	      0.07170868
      0.31752975	      0.12695470	      0.83068241	     82.67139236	    259.09329615	      0.02000000	      0.16730086	      0.14692955	      0.10059053	      0.14447733	      0.09565134	      0.72765707	      0.10217604	      0.15793050	      0.10318945	      0.02295752	      0.07161101
      0.31853309	      0.12778771	      0.82742375	     82.93136306	    259.11422691	      0.02000000	      0.16734698	      0.14731240	      0.10067727	      0.14483011	      0.09573811	      0.72991657	      0.10195390	      0.15583285	      0.10298644	      0.02294477	      0.07151314
      0.31953642	      0.12861213	      0.81553273	     83.19134502	    259.12149176	      0.02000000	      0.16743448	      0.14764526	      0.10076425	      0.14513662	      0.09582510	      0.73203393	      0.10173171	      0.15378217	      0.10278415	      0.02293219	      0.07141507
      0.31989790	      0.12890611	      0.81095049	     83.28501344	    259.12591812	      0.02000000	      0.16746489	      0.14775423	      0.10079564	      0.14523692	      0.09585648	      0.73276379	      0.10165166	      0.15305460	      0.10271141	      0.02292770	      0.07137969
      0.31999550	      0.12898519	      0.80966171	     83.31030215	    259.12721387	      0.02000000	      0.16747322	      0.14778272	      0.10080412	      0.14526315	      0.09586496	      0.73295794	      0.10163005	      0.15285918	      0.10269178	      0.02292649	      0.07137013
      0.32004447	      0.12902482	      0.80900819	     83.32299277	    259.12788195	      0.02000000	      0.16747741	      0.14787220	      0.10080837	      0.14534780	      0.09586921	      0.73312417	      0.10161920	      0.15314194	      0.10268192	      0.02292480	      0.07136534
      0.32009345	      0.12906443	      0.80835230	     83.33568343	    259.12855542	      0.02000000	      0.16748160	      0.14797605	      0.10081260	      0.14544614	      0.09587344	      0.73330369	      0.10160836	      0.15349833	      0.10267203	      0.02292288	      0.07136054
      0.32033832	      0.12926197	      0.80512252	     83.39913718	    259.13171719	      0.02000000	      0.16750262	      0.14848457	      0.10083348	      0.14592758	      0.09589432	      0.73419264	      0.10155408	      0.15524117	      0.10262214	      0.02291334	      0.07133655
      0.32156268	      0.13024012	      0.79478708	     83.71640941	    259.12722334	      0.02000000	      0.16760764	      0.15077768	      0.10093473	      0.14809774	      0.09599591	      0.73842912	      0.10128197	      0.16305967	      0.10236324	      0.02286608	      0.07121649
      0.32296068	      0.13135114	      0.79609494	     84.07863851	    259.07270459	      0.02000000	      0.16774264	      0.15295419	      0.10104933	      0.15015596	      0.09611115	      0.74286991	      0.10097015	      0.17043460	      0.10205355	      0.02281306	      0.07107910
      0.32367013	      0.13191847	      0.80308780	     84.26242821	    259.03935802	      0.02000000	      0.16778938	      0.15390590	      0.10110789	      0.15105532	      0.09617001	      0.74497412	      0.10081161	      0.17365144	      0.10189259	      0.02278653	      0.07100924
      0.32465659	      0.13271508	      0.81232142	     84.51793062	    258.98156301	      0.02000000	      0.16787354	      0.15508212	      0.10118996	      0.15216621	      0.09625246	      0.74774444	      0.10059098	      0.17762568	      0.10166601	      0.02275006	      0.07091197
      0.32587284	      0.13371021	      0.82297903	     84.83287724	    258.91404483	      0.02000000	      0.16798810	      0.15632735	      0.10129205	      0.15334137	      0.09635493	      0.75092735	      0.10031877	      0.18183773	      0.10138385	      0.02270576	      0.07079182
      0.32663235	      0.13433805	      0.82994480	     85.02951172	    258.88524785	      0.02000000	      0.16804317	      0.15700525	      0.10135625	      0.15398066	      0.09641932	      0.75279315	      0.10014876	      0.18413598	      0.10120681	      0.02267846	      0.07071666
      0.32756274	      0.13511244	      0.83383699	     85.27036401	    258.85799058	      0.02000000	      0.16812728	      0.15774466	      0.10143529	      0.15467751	      0.09649855	      0.75495934	      0.09994052	      0.18664983	      0.10098957	      0.02264540	      0.07062447
      0.32845402	      0.13585630	      0.83524306	     85.50107437	    258.85100928	      0.02000000	      0.16819871	      0.15836969	      0.10151138	      0.15526614	      0.09657477	      0.75691811	      0.09974111	      0.18878287	      0.10078145	      0.02261412	      0.07053601
      0.32934530	      0.13659955	      0.83125878	     85.73178581	    258.85771063	      0.02000000	      0.16828745	      0.15892291	      0.10158778	      0.15578679	      0.09665127	      0.75876974	      0.09954179	      0.19067912	      0.10057358	      0.02258320	      0.07044742
      0.32996892	      0.13711704	      0.82773923	     85.89321935	    258.87781929	      0.02000000	      0.16833174	      0.15927182	      0.10164141	      0.15611495	      0.09670495	      0.76000492	      0.09940239	      0.19188007	      0.10042840	      0.02256179	      0.07038535
      0.33012483	      0.13724598	      0.82624327	     85.93358041	    258.88352850	      0.02000000	      0.16834500	      0.15938092	      0.10165484	      0.15623154	      0.09671838	      0.76020859	      0.09936756	      0.19176168	      0.10039218	      0.02255647	      0.07036982
      0.33028073	      0.13737467	      0.82461694	     85.97394239	    258.88973609	      0.02000000	      0.16835834	      0.15949292	      0.10166825	      0.15635332	      0.09673178	      0.76039089	      0.09933273	      0.19156265	      0.10035607	      0.02255115	      0.07035429
      0.33106026	      0.13801389	      0.81509392	     86.17576856	    258.92658610	      0.02000000	      0.16842532	      0.16001853	      0.10173524	      0.15692454	      0.09679866	      0.76127638	      0.09915883	      0.19057773	      0.10017708	      0.02252475	      0.07027655
      0.33294993	      0.13952836	      0.78565565	     86.66515647	    259.03406887	      0.02000000	      0.16860399	      0.16108317	      0.10189806	      0.15808010	      0.09696109	      0.76325372	      0.09873847	      0.18825913	      0.09975214	      0.02246188	      0.07008764
      0.33355668	      0.14000287	      0.77784623	     86.82233921	    259.07707737	      0.02000000	      0.16864185	      0.16137094	      0.10195055	      0.15839208	      0.09701343	      0.76384122	      0.09860380	      0.18753477	      0.09961782	      0.02244204	      0.07002683
      0.33455063	      0.14076779	      0.76192560	     87.07987902	    259.13959903	      0.02000000	      0.16872335	      0.16179405	      0.10203675	      0.15885046	      0.09709941	      0.76475743	      0.09838345	      0.18636868	      0.09939952	      0.02240987	      0.06992706
      0.33539852	      0.14140770	      0.74674654	     87.29962056	    259.18677483	      0.02000000	      0.16881303	      0.16211259	      0.10211050	      0.15919527	      0.09717297	      0.76549591	      0.09819570	      0.18539366	      0.09921472	      0.02238276	      0.06984180
      0.33624640	      0.14203585	      0.73497511	     87.51940331	    259.23845151	      0.02000000	      0.16887033	      0.16239661	      0.10218441	      0.15950249	      0.09724670	      0.76619690	      0.09800812	      0.18443638	      0.09903097	      0.02235597	      0.06975640
      0.33709429	      0.14265300	      0.72024196	     87.73922516	    259.27748016	      0.02000000	      0.16895301	      0.16264989	      0.10225847	      0.15977625	      0.09732058	      0.76686235	      0.09782069	      0.18349644	      0.09884809	      0.02232947	      0.06967086
      0.33794217	      0.14325826	      0.70804715	     87.95907887	    259.31612304	      0.02000000	      0.16901638	      0.16287577	      0.10233267	      0.16002024	      0.09739460	      0.76749410	      0.09763338	      0.18257350	      0.09866591	      0.02230328	      0.06958520
      0.33879006	      0.14385282	      0.69379842	     88.17896131	    259.34217383	      0.02000000	      0.16910203	      0.16307725	      0.10240699	      0.16023771	      0.09746875	      0.76809390	      0.09744617	      0.18166717	      0.09848429	      0.02227738	      0.06949939
      0.33963794	      0.14443621	      0.68276090	     88.39886450	    259.36754422	      0.02000000	      0.16916272	      0.16325698	      0.10248142	      0.16043157	      0.09754300	      0.76866338	      0.09725904	      0.18077713	      0.09830312	      0.02225178	      0.06941346
      0.33996466	      0.14465843	      0.67761465	     88.48360627	    259.37276630	      0.02000000	      0.16919276	      0.16332093	      0.10251012	      0.16050053	      0.09757164	      0.76887507	      0.09718696	      0.18043843	      0.09823340	      0.02224199	      0.06938032
      0.34003273	      0.14470451	      0.67657689	     88.50126007	    259.37376364	      0.02000000	      0.16919876	      0.16334592	      0.10251610	      0.16052621	      0.09757761	      0.76895649	      0.09717194	      0.18040834	      0.09821888	      0.02223996	      0.06937341
      0.34010079	      0.14475053	      0.67554681	     88.51891395	    259.37471286	      0.02000000	      0.16920473	      0.16343043	      0.10252207	      0.16060979	      0.09758356	      0.76922630	      0.09715692	      0.18057802	      0.09820435	      0.02223792	      0.06936650
